# xmcd
#
# Track frame offsets:
#	150
#	13068
#	30711
#	43666
#	59246
#	74227
#	94909
#	108914
#	128771
#	141126
#	156706
#	170975
#	185319
#	197112
#	215167
#	235625
#	246856
#	261125
#	276556
#
# Disc length: 3903 seconds
#
# Revision: 1
# Processed by: cddbd v1.5.1PL2 Copyright (c) Steve Scherf et al.
# Submitted via: audiograbber 1.83.01
#
DISCID=360f3d13
DTITLE=Mama's Hand - Bluegrass and Mountain Songs About Mother
DYEAR=2002
DGENRE=Bluegrass
TTITLE0=Medals For Mothers - Rhonda Vincent (previously unreleased)
TTITLE1=Mama's Flowers - Rambler's Choice
TTITLE2=Mama's Gonna Stay - Hazel Dickens-Alice Gerrard
TTITLE3=If I Could Hear My Mother Pray Again - The Blue Sky Boys
TTITLE4=Rocking Alone In An Old Rocking Chair - Joe Val
TTITLE5=Mama's Hand - Hazel Dickens
TTITLE6=Shake My Mother's Hand For Me - The Whitstein Brothers
TTITLE7=Sweeter Than The Flowers - James King
TTITLE8=Dear Old Mother - Jim and Jesse
TTITLE9=The Sweetest Gift A Mother's Smile - Hazel Dickens-Alice Gerrard
TTITLE10=I Heard My Mother Weeping - Doc Watson-Rose Lee Watson
TTITLE11=Dreaming Of A Little Cabin - Connie and Babe And The Backwood Boys
TTITLE12=Mother, The Queen Of My Heart - Bashful Brother Oswald-Charlie Collins
TTITLE13=I Have No Mother Now - Suzanne Thomas-Carol Elizabeth Jones
TTITLE14=Mother's Voice Is In The Wind - The Johnson Mountain Boys
TTITLE15=Dream Of A Miner's Child - Phyllis Boyens
TTITLE16=Picture On The Wall - The Warrior River Boys
TTITLE17=Momma Cried - Alison Krauss And Union Station-Dan Tyminski
TTITLE18=A Mother's Last Words To Her Daughter- Dry Branch Fire Squad
EXTD=
EXTT0=
EXTT1=
EXTT2=
EXTT3=
EXTT4=
EXTT5=
EXTT6=
EXTT7=
EXTT8=
EXTT9=
EXTT10=
EXTT11=
EXTT12=
EXTT13=
EXTT14=
EXTT15=
EXTT16=
EXTT17=
EXTT18=
PLAYORDER=
